<svg xmlns="http://www.w3.org/2000/svg" viewBox="0 0 80 80">
  <path d="M40 6 L70 12 L70 42 Q70 60 40 74 Q10 60 10 42 L10 12 Z" fill="#1e4a7a" stroke="#c9a447" stroke-width="2"/>
  <path d="M10 12 L70 12 L70 22 L10 22 Z" fill="#c9a447" opacity="0.85"/>
  <path d="M40 14 L41.5 17.5 L45 17.5 L42.2 19.8 L43.5 23.3 L40 21.2 L36.5 23.3 L37.8 19.8 L35 17.5 L38.5 17.5 Z" fill="white"/>
  <g transform="translate(40,44)">
    <rect x="-1" y="-12" width="2" height="20" fill="#c9a447"/>
    <rect x="-7" y="8" width="14" height="2" fill="#c9a447"/>
    <rect x="-14" y="-12" width="28" height="1.5" fill="#c9a447"/>
    <line x1="-12" y1="-11" x2="-12" y2="-4" stroke="#c9a447" stroke-width="0.8"/>
    <line x1="12" y1="-11" x2="12" y2="-4" stroke="#c9a447" stroke-width="0.8"/>
    <path d="M-16 -4 L-8 -4 L-10 -1 L-14 -1 Z" fill="white" stroke="#c9a447" stroke-width="0.5"/>
    <path d="M8 -4 L16 -4 L14 -1 L10 -1 Z" fill="white" stroke="#c9a447" stroke-width="0.5"/>
    <circle cx="0" cy="-12" r="1.8" fill="#c9a447"/>
  </g>
</svg>
